<svg width="48" height="48" viewBox="0 0 48 48" fill="none" xmlns="http://www.w3.org/2000/svg">
<path d="M0 8C0 3.58172 3.58172 0 8 0H40C44.4183 0 48 3.58172 48 8V40C48 44.4183 44.4183 48 40 48H8C3.58172 48 0 44.4183 0 40V8Z" fill="white"/>
<path d="M20.465 24.4144C19.7348 22.68 18.5481 21.4934 16.8137 20.7631C16.0835 20.4893 15.4445 20.3067 14.7142 20.3067C14.1665 20.2154 13.6188 20.3067 13.1624 20.398C12.4322 20.4893 11.7019 20.7631 11.0629 21.1282C11.0629 21.1282 10.9717 21.1282 10.9717 21.2195V21.1282C10.9717 20.8544 10.9717 20.4893 11.0629 20.2154C11.0629 19.759 11.1542 19.3026 11.2455 18.9375C11.2455 18.5723 11.3368 18.2985 11.4281 18.1159C11.7019 17.6595 12.067 17.3857 12.6147 17.3857C13.6188 17.3857 14.7142 17.3857 15.7183 17.3857C16.7224 17.3857 17.8178 17.3857 18.8219 17.3857C19.0045 17.3857 19.0958 17.3857 19.2783 17.3857C19.826 17.2944 20.1912 17.0205 20.3737 16.5641C20.5563 16.1077 20.465 15.6513 20.0999 15.2862C19.826 15.0123 19.5522 14.921 19.1871 14.921C16.9963 14.921 14.8055 14.921 12.706 14.8298C12.5235 14.8298 12.2496 14.8298 12.067 14.921C10.8804 15.1949 9.96756 15.8339 9.32858 16.9292C8.87217 17.4769 8.6896 18.2072 8.59832 18.9375C8.50704 19.3939 8.50704 19.8503 8.50704 20.398C8.50704 20.7631 8.50704 21.1282 8.50704 21.4934C8.50704 21.9498 8.59832 22.4062 8.78089 22.7713C9.14602 23.5016 9.78499 23.8667 10.6978 23.8667C11.0629 23.8667 11.4281 23.7754 11.7932 23.5929C12.1583 23.4103 12.5235 23.2277 12.8886 23.0452C13.345 22.8626 13.8014 22.7713 14.2578 22.7713C14.5317 22.7713 14.8055 22.8626 15.1706 22.8626C16.4486 23.1364 17.3614 23.7754 18.0004 24.9621C18.5481 25.9662 18.7307 27.0616 18.5481 28.2482C18.3655 29.4349 17.8178 30.439 16.905 31.1693C15.8096 32.0821 14.6229 32.3559 13.2537 32.0821C11.3368 31.717 9.87627 30.2565 9.41986 28.8872C9.2373 28.2482 8.50704 27.9744 7.95935 28.157C7.22909 28.3395 6.86396 29.0698 7.04652 29.8C7.22909 30.2565 7.41165 30.6216 7.59422 30.9867C8.41576 32.3559 9.60243 33.4513 11.1542 34.0903C12.5235 34.7293 13.984 34.9119 15.5358 34.638C17.9091 34.1816 19.9173 32.4472 20.7389 30.0739C21.104 29.0698 21.1953 28.0657 21.1953 26.9703C20.9214 26.0575 20.7389 25.2359 20.465 24.4144Z" fill="#FC4646"/>
<path d="M33.8834 27.4267C33.6096 27.4267 33.427 27.4267 33.1532 27.4267C32.2403 27.4267 31.3275 27.4267 30.506 27.4267C29.9583 27.4267 29.5931 27.7006 29.4106 28.157C29.228 28.6134 29.228 29.0698 29.5931 29.5262C29.867 29.8 30.1408 29.9826 30.5973 29.9826C31.5101 29.9826 32.5142 29.9826 33.427 29.9826H33.6096C33.5183 30.3477 33.427 30.6216 33.2444 30.8954C32.788 31.5344 32.149 31.9908 31.3275 32.1734C30.5973 32.3559 29.867 32.3559 29.0455 32.2647C28.0413 32.0821 27.2198 31.5344 26.5808 30.7129C25.8506 29.7088 25.5767 28.6134 25.4854 27.4267C25.4854 26.9703 25.5767 26.5139 25.668 26.0575C25.8506 25.3272 26.1244 24.597 26.5808 24.0493C27.1285 23.319 27.7675 22.8626 28.6803 22.68C29.3193 22.4975 30.0496 22.4975 30.6885 22.68C31.8752 22.9539 32.8793 23.5928 33.427 24.6882C33.7008 25.1446 34.2485 25.4185 34.7962 25.3272C35.6178 25.1446 36.0742 24.3231 35.7091 23.5928C35.6178 23.319 35.4352 23.1364 35.3439 22.8626C34.5224 21.5846 33.3357 20.7631 31.8752 20.3067C30.9624 20.0328 30.0496 19.9416 29.0455 20.0328C28.4065 20.1241 27.7675 20.2154 27.2198 20.4893C25.9419 21.0369 25.029 21.8585 24.2988 22.9539C23.2034 24.6882 22.8383 26.6052 23.2034 28.6134C23.386 29.7088 23.6598 30.6216 24.2075 31.6257C25.029 32.9949 26.1244 33.999 27.5849 34.5467C28.7716 35.0031 29.9583 35.0944 31.1449 34.9118C31.9665 34.8206 32.788 34.5467 33.5183 34.0903C34.6137 33.4513 35.5265 32.5385 35.9829 31.2606C36.2568 30.6216 36.348 29.9826 36.1655 29.3436C35.8003 28.157 34.8875 27.4267 33.8834 27.4267Z" fill="#FC4646"/>
<path d="M33.2445 17.7508C33.8835 17.7508 34.4312 17.2031 34.4312 16.5641V13.1867C34.4312 12.5477 33.8835 12 33.2445 12C32.6056 12 32.0579 12.5477 32.0579 13.1867V16.5641C32.1491 17.2031 32.6056 17.7508 33.2445 17.7508Z" fill="#FC4646"/>
<path d="M42.8291 20.9456H39.3604C38.7214 20.9456 38.1737 21.4933 38.1737 22.1323C38.1737 22.7713 38.7214 23.319 39.3604 23.319H42.8291C43.4681 23.319 44.0158 22.7713 44.0158 22.1323C43.9245 21.4933 43.4681 20.9456 42.8291 20.9456Z" fill="#FC4646"/>
<path d="M41.9163 15.3774C42.3727 14.921 42.3727 14.1908 41.9163 13.7344C41.4599 13.2779 40.7296 13.2779 40.2732 13.7344L36.7132 17.2944C36.2568 17.7508 36.2568 18.481 36.7132 18.9374C37.1696 19.3026 37.8999 19.3026 38.3563 18.8462L41.9163 15.3774Z" fill="#FC4646"/>
</svg>
