<svg width="48" height="48" viewBox="0 0 48 48" fill="none" xmlns="http://www.w3.org/2000/svg">
<path d="M0 8C0 3.58172 3.58172 0 8 0H40C44.4183 0 48 3.58172 48 8V40C48 44.4183 44.4183 48 40 48H8C3.58172 48 0 44.4183 0 40V8Z" fill="white"/>
<circle cx="24" cy="24" r="16" stroke="black" stroke-width="2"/>
<path d="M24.0003 8C18.4922 10.7801 14.667 16.8988 14.667 24C14.667 31.1012 18.4922 37.2199 24.0003 40" stroke="black"/>
<path d="M36.8316 14.2813C33.6217 16.7433 29.0602 18.2812 23.9998 18.2812C18.9394 18.2813 14.3779 16.7433 11.168 14.2812" stroke="black"/>
<path d="M36.8316 33.334C33.6217 30.8719 29.0602 29.334 23.9998 29.334C18.9394 29.334 14.3779 30.8719 11.168 33.334" stroke="black"/>
<path d="M24 8C29.5081 10.7801 33.3333 16.8988 33.3333 24C33.3333 31.1012 29.5081 37.2199 24 40" stroke="black"/>
<path d="M43 15.5455C43 19.1604 36.5 25 36.5 25C36.5 25 30 19.1604 30 15.5455C30 11.9305 32.9101 9 36.5 9C40.0899 9 43 11.9305 43 15.5455Z" fill="#FC4646" stroke="black"/>
<circle cx="36.5" cy="15.5" r="2.5" fill="#F0F0F0" stroke="black"/>
</svg>
