<svg width="48" height="48" viewBox="0 0 48 48" fill="none" xmlns="http://www.w3.org/2000/svg">
<path d="M0 8C0 3.58172 3.58172 0 8 0H40C44.4183 0 48 3.58172 48 8V40C48 44.4183 44.4183 48 40 48H8C3.58172 48 0 44.4183 0 40V8Z" fill="white"/>
<rect x="6" y="4" width="22" height="40" rx="4" stroke="black" stroke-width="2" stroke-linecap="round"/>
<path d="M6 10H28" stroke="black" stroke-width="2" stroke-linecap="round"/>
<path d="M6 38H28" stroke="black" stroke-width="2" stroke-linecap="round"/>
<path d="M15 41H19" stroke="black" stroke-linecap="round"/>
<rect x="11" y="17" width="31" height="14" rx="2" fill="#FC4646" stroke="black" stroke-linecap="round"/>
<path d="M19.22 22.8552C19.22 21.844 18.4933 21 17.2793 21H15V26.9499H16.1479V24.7103H17.2793C18.4933 24.7103 19.22 23.8663 19.22 22.8552ZM18.0721 22.8552C18.0721 23.3398 17.7418 23.6657 17.2215 23.6657H16.1479V22.0362H17.2215C17.7418 22.0362 18.0721 22.3705 18.0721 22.8552Z" fill="black"/>
<path d="M23.3175 24.7688C23.3175 23.9833 23.2184 23.4903 22.8303 23.0808C22.566 22.7967 22.1283 22.546 21.4924 22.546C20.8565 22.546 20.4271 22.7967 20.1628 23.0808C19.7747 23.4903 19.6756 23.9833 19.6756 24.7688C19.6756 25.5627 19.7747 26.0557 20.1628 26.4652C20.4271 26.7493 20.8565 27 21.4924 27C22.1283 27 22.566 26.7493 22.8303 26.4652C23.2184 26.0557 23.3175 25.5627 23.3175 24.7688ZM22.2439 24.7688C22.2439 25.2201 22.2192 25.6045 21.9962 25.8301C21.8723 25.9554 21.7071 26.0223 21.4924 26.0223C21.2777 26.0223 21.1208 25.9554 20.9969 25.8301C20.7739 25.6045 20.7492 25.2201 20.7492 24.7688C20.7492 24.3175 20.7739 23.9415 20.9969 23.7159C21.1208 23.5905 21.2777 23.5237 21.4924 23.5237C21.7071 23.5237 21.8723 23.5905 21.9962 23.7159C22.2192 23.9415 22.2439 24.3175 22.2439 24.7688Z" fill="black"/>
<path d="M27.4134 25.5794C27.4134 24.844 26.984 24.3844 26.1334 24.3008L25.4562 24.234C25.0763 24.2006 25.0102 24.0167 25.0102 23.8579C25.0102 23.6407 25.1919 23.4401 25.6213 23.4401C25.993 23.4401 26.3728 23.507 26.6206 23.7326L27.2813 23.0557C26.8683 22.663 26.3068 22.546 25.6379 22.546C24.7625 22.546 23.9779 23.0306 23.9779 23.9331C23.9779 24.7354 24.4569 25.078 25.2332 25.1532L25.9104 25.2201C26.249 25.2535 26.3646 25.4039 26.3646 25.6212C26.3646 25.9471 25.9764 26.0724 25.6048 26.0724C25.2745 26.0724 24.812 26.0223 24.4569 25.663L23.7549 26.3733C24.3 26.9248 24.9111 27 25.5883 27C26.6041 27 27.4134 26.5404 27.4134 25.5794Z" fill="black"/>
<path d="M30 26.9499V26.0306H29.6119C29.3558 26.0306 29.2402 25.8886 29.2402 25.6379V23.5487H30V22.7214H29.2402V21.4345H28.1666V22.7214H27.7124V23.5487H28.1666V25.7047C28.1666 26.3231 28.5383 26.9499 29.4137 26.9499H30Z" fill="black"/>
<path d="M38.8536 24.3536C39.0488 24.1583 39.0488 23.8417 38.8536 23.6464L35.6716 20.4645C35.4763 20.2692 35.1597 20.2692 34.9645 20.4645C34.7692 20.6597 34.7692 20.9763 34.9645 21.1716L37.7929 24L34.9645 26.8284C34.7692 27.0237 34.7692 27.3403 34.9645 27.5355C35.1597 27.7308 35.4763 27.7308 35.6716 27.5355L38.8536 24.3536ZM32 23.5C31.7239 23.5 31.5 23.7239 31.5 24C31.5 24.2761 31.7239 24.5 32 24.5V23.5ZM38.5 23.5H32V24.5H38.5V23.5Z" fill="black"/>
</svg>
