<svg width="48" height="48" viewBox="0 0 48 48" fill="none" xmlns="http://www.w3.org/2000/svg">
<path d="M0 8C0 3.58172 3.58172 0 8 0H40C44.4183 0 48 3.58172 48 8V40C48 44.4183 44.4183 48 40 48H8C3.58172 48 0 44.4183 0 40V8Z" fill="white"/>
<rect x="20" y="4" width="22" height="40" rx="4" stroke="black" stroke-width="2" stroke-linecap="round"/>
<path d="M20 10H42" stroke="black" stroke-width="2" stroke-linecap="round"/>
<path d="M20 38H42" stroke="black" stroke-width="2" stroke-linecap="round"/>
<path d="M29 41H33" stroke="black" stroke-linecap="round"/>
<rect x="6" y="17" width="31" height="14" rx="2" fill="#FC4646" stroke="black" stroke-linecap="round"/>
<path d="M24.2888 22.8552C24.2888 21.844 23.5503 21 22.3165 21H20V26.9499H21.1666V24.7103H22.3165C23.5503 24.7103 24.2888 23.8663 24.2888 22.8552ZM23.1222 22.8552C23.1222 23.3398 22.7865 23.6657 22.2577 23.6657H21.1666V22.0362H22.2577C22.7865 22.0362 23.1222 22.3705 23.1222 22.8552Z" fill="black"/>
<path d="M28.2162 22.9554C27.914 22.6546 27.6119 22.546 27.1838 22.546C26.7138 22.546 26.2942 22.7632 26.0844 23.0139V22.5961H25.0184V26.9499H26.1095V24.3259C26.1095 23.7744 26.4788 23.5237 26.8145 23.5237C27.0831 23.5237 27.2258 23.6156 27.3937 23.7827L28.2162 22.9554Z" fill="black"/>
<path d="M32 25.1114V24.6267C32 23.4318 31.3118 22.546 30.0948 22.546C28.9617 22.546 28.1896 23.3482 28.1896 24.7688C28.1896 26.532 29.1799 27 30.2123 27C31.0012 27 31.4293 26.7577 31.8741 26.3148L31.2111 25.6713C30.9341 25.9471 30.6991 26.0808 30.2207 26.0808C29.608 26.0808 29.2639 25.6713 29.2639 25.1114H32ZM30.9257 24.3677H29.2639C29.2723 24.1755 29.2974 24.0585 29.3646 23.8997C29.4821 23.6407 29.7255 23.4485 30.0948 23.4485C30.4641 23.4485 30.7075 23.6407 30.825 23.8997C30.8921 24.0585 30.9173 24.1755 30.9257 24.3677Z" fill="black"/>
<path d="M9.64645 23.6464C9.45118 23.8417 9.45118 24.1583 9.64645 24.3536L12.8284 27.5355C13.0237 27.7308 13.3403 27.7308 13.5355 27.5355C13.7308 27.3403 13.7308 27.0237 13.5355 26.8284L10.7071 24L13.5355 21.1716C13.7308 20.9763 13.7308 20.6597 13.5355 20.4645C13.3403 20.2692 13.0237 20.2692 12.8284 20.4645L9.64645 23.6464ZM16.5 24.5C16.7761 24.5 17 24.2761 17 24C17 23.7239 16.7761 23.5 16.5 23.5V24.5ZM10 24.5H16.5V23.5H10V24.5Z" fill="black"/>
</svg>
