<?xml version="1.0" encoding="UTF-8"?>
<svg width="154px" height="46px" viewBox="0 0 154 46" version="1.1" xmlns="http://www.w3.org/2000/svg" xmlns:xlink="http://www.w3.org/1999/xlink">
    <!-- Generator: Sketch 58 (84663) - https://sketch.com -->
    <title>appgallery_huawei_icon</title>
    <desc>Created with Sketch.</desc>
    <g id="appgallery_huawei_icon" stroke="none" stroke-width="1" fill="none" fill-rule="evenodd">
        <g id="Spanish-(Latin-American)-Badge-Black-01">
            <path d="M143.033608,0 L10.8578143,0 C10.4397885,0 10.0271915,0 9.61097532,0 C9.26171563,0 8.91607521,0 8.56319624,0.0144770858 C7.79960276,0.0250415706 7.03793647,0.0940089713 6.28486486,0.220775558 C5.52857827,0.350887735 4.79639858,0.594947631 4.113302,0.944629847 C3.43201793,1.29274245 2.80973841,1.74586453 2.2692832,2.28737955 C1.72494851,2.82609895 1.27149042,3.44945104 0.92653349,4.13320799 C0.579988737,4.81666234 0.339566145,5.54891388 0.213537015,6.30477086 C0.0893452415,7.05494869 0.0239992162,7.81368865 0.0180963572,8.57405405 C0,8.92331375 0,9.27438308 0,9.62364277 L0,36.5546416 C0,36.9075206 0,37.2495417 0.0180963572,37.6042303 C0.0258247445,38.368413 0.0935930804,39.1308068 0.220775558,39.8843713 C0.346253603,40.6403638 0.586703147,41.3726974 0.933772033,42.0559342 C1.27873583,42.7380687 1.73222592,43.3596312 2.27652174,43.8963337 C2.8158907,44.4396039 3.43836439,44.8934782 4.12054054,45.2408931 C4.80401285,45.5896794 5.53605374,45.8336931 6.29210341,45.9647474 C7.0472152,46.0890957 7.81063925,46.1562431 8.57586369,46.1656169 C8.92874266,46.1656169 9.27438308,46.1782844 9.62364277,46.1782844 L144.267779,46.1782844 C144.615229,46.1782844 144.971727,46.1782844 145.319177,46.1656169 C146.082632,46.1568541 146.844298,46.0897017 147.597509,45.9647474 C148.353134,45.8320112 149.08493,45.5880792 149.769072,45.2408931 C150.450838,44.8944471 151.072771,44.4411324 151.611281,43.8981434 C152.153819,43.3590888 152.608164,42.7380283 152.95765,42.0577438 C153.30245,41.3741912 153.540465,40.6418372 153.663408,39.886181 C153.790901,39.1324977 153.861676,38.3703121 153.875135,37.60604 C153.875135,37.2441128 153.875135,36.9093302 153.875135,36.5564512 C153.875135,36.1420447 153.875135,35.7294477 153.875135,35.3096122 L153.875135,10.87953 C153.875135,10.4633137 153.875135,10.0489072 153.875135,9.63631022 C153.875135,9.28705053 153.875135,8.9359812 153.875135,8.5867215 C153.861676,7.82244938 153.790901,7.06026373 153.663408,6.30658049 C153.539912,5.55105837 153.301924,4.8187868 152.95765,4.13501763 C152.256101,2.76153268 151.141572,1.64257396 149.770881,0.935581669 C149.086618,0.590608109 148.354702,0.349685797 147.599318,0.220775558 C146.843836,0.0945564046 146.079666,0.027396616 145.313749,0.0199059929 C144.966298,0.0199059929 144.6098,0.00723854289 144.26235,0.00542890717 C143.853373,0.00542890717 143.437156,0.00542890717 143.028179,0.00542890717 L143.033608,0 Z" id="Path" fill="#B6B6B6" fill-rule="nonzero"></path>
            <path d="M9.62183314,45.1721269 C9.27438308,45.1721269 8.9359812,45.1721269 8.59034078,45.1612691 C7.87747993,45.1533369 7.16617426,45.0928517 6.46220917,44.9803055 C5.80562162,44.8667815 5.16953335,44.6563784 4.57475911,44.3559812 C3.98534659,44.0576792 3.44767241,43.6666435 2.98227967,43.1978143 C2.51069289,42.7346431 2.11822651,42.1972943 1.82049354,41.6071445 C1.51816888,41.0130061 1.30941027,40.3757429 1.20159812,39.7178848 C1.08688944,39.0117537 1.02639159,38.297879 1.02063455,37.5825147 C1.02063455,37.3418331 1.00434783,36.5419741 1.00434783,36.5419741 L1.00434783,9.62364277 C1.00434783,9.62364277 1.00434783,8.8346416 1.02063455,8.60481786 C1.02668788,7.89006748 1.08718412,7.17681683 1.20159812,6.47125734 C1.30967989,5.8125498 1.51777653,5.17422404 1.8186839,4.57837838 C2.11556734,3.9880235 2.50607193,3.44962829 2.97504113,2.98408931 C3.44402027,2.51559855 3.98311998,2.1230265 4.57294947,1.82049354 C5.16608212,1.5199774 5.80118062,1.31071824 6.45678026,1.19978848 C7.16361717,1.0858743 7.87803277,1.02538187 8.59396005,1.01882491 L9.62183314,1.00434783 L144.258731,1.00434783 L145.299271,1.01882491 C146.008604,1.02522826 146.716415,1.08572491 147.416545,1.19978848 C148.078454,1.3118572 148.720038,1.52165278 149.320282,1.82230317 C150.502225,2.433018 151.464353,3.39704409 152.072738,4.58018801 C152.369185,5.17214865 152.574774,5.80538638 152.682585,6.45858989 C152.800042,7.16951778 152.865964,7.88800517 152.879835,8.60843713 C152.879835,8.93236193 152.879835,9.27800235 152.879835,9.62364277 C152.879835,10.0507168 152.879835,10.4578848 152.879835,10.8668625 L152.879835,35.3059929 C152.879835,35.7203995 152.879835,36.1239483 152.879835,36.5311163 C152.879835,36.8930435 152.879835,37.2404935 152.879835,37.5897532 C152.86693,38.2974844 152.802213,39.0033203 152.686204,39.7015981 C152.579602,40.3638901 152.372099,41.0059261 152.070928,41.6053349 C151.769885,42.1887367 151.379066,42.7212277 150.912761,43.1833373 C150.447402,43.6549452 149.909069,44.0484605 149.318472,44.3487427 C148.720328,44.6521499 148.079697,44.8632532 147.418355,44.9748766 C146.713857,45.0880396 146.001904,45.1485284 145.288414,45.1558402 C144.955441,45.1558402 144.606181,45.166698 144.265969,45.166698 L143.031798,45.166698 L9.62183314,45.1721269 Z" id="Path" fill="#000000" fill-rule="nonzero"></path>
            <path d="M57.0759107,31.2053584 L51.7356757,31.2053584 L50.427309,34.7775793 L48.0747826,34.7775793 L53.3046298,21.4351351 L55.5232432,21.4351351 L60.8725264,34.7775793 L58.4096122,34.7775793 L57.0759107,31.2053584 Z M52.4070505,29.3957227 L56.3882491,29.3957227 L54.9604465,25.5755817 C54.7650059,25.047168 54.5719781,24.4638621 54.3813631,23.8256639 C54.2088445,24.3902703 54.0218488,24.9675441 53.820376,25.5574853 L52.4070505,29.3957227 Z" id="Shape" fill="#FFFFFF" fill-rule="nonzero"></path>
            <path d="M61.9384019,27.27302 C61.9384019,26.535895 61.9136702,25.7257814 61.8642068,24.8426792 L63.999577,24.8426792 C64.0805425,25.2611878 64.1361393,25.6842073 64.1660635,26.1094242 C65.0491657,25.1442852 66.0619585,24.6617156 67.2044418,24.6617156 C68.5983826,24.6394186 69.8669394,25.4636586 70.412926,26.746416 C70.760376,27.4702703 70.9341011,28.3865492 70.9341011,29.4952526 C70.9619638,30.519093 70.7584537,31.536025 70.3387309,32.4702938 C69.9849518,33.2458905 69.4061492,33.897201 68.6774853,34.3396475 C67.9282444,34.7730485 67.0745194,34.9927387 66.2091422,34.9748296 C65.5313131,34.9728392 64.8585582,34.8578593 64.2185429,34.6346181 L64.2185429,38.7406816 L61.9456404,38.9343126 L61.9384019,27.27302 Z M67.9101998,32.3508578 C68.3734665,31.7283431 68.6050999,30.8186996 68.6050999,29.6219271 C68.6050999,28.5108108 68.4241363,27.7055229 68.0296357,27.2042538 C67.673738,26.716575 67.1003503,26.4356353 66.4968743,26.453255 C66.0683246,26.4501271 65.6462619,26.5579806 65.2717509,26.766322 C64.8768879,26.9920284 64.5171815,27.2743064 64.2040658,27.6041833 L64.2040658,32.9353702 C64.4566792,33.0545923 64.7228335,33.1427027 64.9966863,33.1977673 C65.2903171,33.2622394 65.5900212,33.2950005 65.8906463,33.2954877 C66.7785742,33.2894555 67.4541716,32.9745789 67.9174383,32.3508578 L67.9101998,32.3508578 Z" id="Shape" fill="#FFFFFF" fill-rule="nonzero"></path>
            <path d="M72.3854289,27.27302 C72.3854289,26.535895 72.3613004,25.7257814 72.3130435,24.8426792 L74.4484136,24.8426792 C74.528488,25.2613319 74.5840779,25.6842984 74.6149001,26.1094242 C75.4980024,25.1442852 76.5107951,24.6617156 77.6532785,24.6617156 C79.0472192,24.6394186 80.315776,25.4636586 80.8617626,26.746416 C81.2092127,27.4702703 81.3823345,28.3865492 81.3811281,29.4952526 C81.4094965,30.5189492 81.2066089,31.5358615 80.7875676,32.4702938 C80.4332222,33.2455216 79.854553,33.896682 79.126322,34.3396475 C78.3770104,34.7728758 77.5233345,34.9925534 76.6579788,34.9748296 C75.9801498,34.9728392 75.3073949,34.8578593 74.6673796,34.6346181 L74.6673796,38.7406816 L72.3854289,38.9306933 L72.3854289,27.27302 Z M78.366275,32.3508578 C78.8295417,31.7283431 79.0611751,30.8186996 79.0611751,29.6219271 C79.0611751,28.5108108 78.8693537,27.7049197 78.4857109,27.2042538 C78.1298132,26.716575 77.5564255,26.4356353 76.9529495,26.453255 C76.5243797,26.4499622 76.1022756,26.5578263 75.7278261,26.766322 C75.3323425,26.991105 74.9725074,27.2734842 74.660141,27.6041833 L74.660141,32.9353702 C74.9158745,33.052606 75.1851487,33.1377039 75.4618096,33.1887192 C75.7554719,33.2529994 76.0551553,33.2857583 76.3557697,33.2864395 C77.2364591,33.2864395 77.9078339,32.9745789 78.3698942,32.3508578 L78.366275,32.3508578 Z" id="Shape" fill="#FFFFFF" fill-rule="nonzero"></path>
            <path d="M85.6753937,34.1460165 C84.7038014,33.6132631 83.9149896,32.8004905 83.4115394,31.813396 C82.8831257,30.8 82.6189189,29.6026244 82.6189189,28.2212691 C82.6189189,26.7253036 82.9205249,25.4531297 83.5237368,24.4047474 C84.099007,23.391778 84.9626466,22.5728636 86.0047474,22.0522209 C87.0997981,21.5147537 88.3066051,21.2443694 89.5262985,21.2632197 C90.2660517,21.2602813 91.0035296,21.3453281 91.7231962,21.5165687 C92.3951908,21.6780514 93.0479664,21.9110122 93.6703643,22.2114689 L93.0912808,23.9613866 C92.0157122,23.4182935 90.8322555,23.1227385 89.6276381,23.0963807 C88.777716,23.0772463 87.937705,23.2819443 87.1918684,23.6899412 C86.4852426,24.0944122 85.9174901,24.703169 85.5631962,25.4362397 C85.1553338,26.3046984 84.9569878,27.2567591 84.9841128,28.2158402 C84.9679431,29.0812901 85.1197378,29.941665 85.4310928,30.7493302 C85.7097488,31.4632624 86.2012754,32.0741959 86.8389894,32.4992479 C87.4808069,32.9299412 88.2897141,33.1446847 89.2657109,33.1434783 C89.7101639,33.1435913 90.1538534,33.1066676 90.5921739,33.0330905 C91.0151894,32.9650122 91.4308357,32.8571622 91.833584,32.7109753 L91.833584,30.0073796 L88.7572033,30.0073796 L88.7572033,28.2393655 L94.0521974,28.2393655 L94.0521974,33.8492362 C93.2840989,34.207872 92.4795979,34.4827128 91.6526204,34.6690012 C90.8328661,34.8572777 89.9946093,34.9531825 89.1535135,34.9549873 C87.8167959,34.9597493 86.6574226,34.6901136 85.6753937,34.1460165 Z" id="Path" fill="#FFFFFF" fill-rule="nonzero"></path>
            <path d="M102.244418,34.7775793 C102.15874,34.3430967 102.106709,33.9026516 102.08879,33.4601645 C101.708001,33.9022399 101.242911,34.2639765 100.720705,34.5242303 C100.131707,34.8225138 99.4789124,34.9728243 98.8187779,34.9621622 C98.2800677,34.9691535 97.7467664,34.8540792 97.2588719,34.6255699 C96.7936153,34.4064863 96.4042449,34.0536588 96.140517,33.6121739 C95.8507208,33.1109798 95.7071585,32.5386113 95.7261105,31.9599765 C95.6920127,31.070275 96.0772292,30.2160993 96.766651,29.652691 C97.4603447,29.0784332 98.6173051,28.7919076 100.237532,28.793114 C100.843063,28.7919616 101.447874,28.8349032 102.047168,28.9215981 L102.047168,28.7279671 C102.047168,27.850897 101.860172,27.2326048 101.486181,26.8730905 C101.11219,26.5135762 100.575331,26.3326126 99.8756052,26.3301998 C99.3494613,26.3357822 98.8260634,26.406906 98.3175088,26.5419271 C97.8200723,26.6649026 97.3353533,26.8345543 96.8698002,27.0486251 L96.5078731,25.3909988 C97.0247143,25.1707525 97.5616648,25.0010616 98.1112103,24.8843008 C98.799883,24.7278963 99.5041875,24.6507871 100.210388,24.6544771 C100.959859,24.6343776 101.705552,24.7673832 102.401857,25.0453584 C103.012787,25.3168527 103.510445,25.7921227 103.809753,26.3899177 C104.147552,27.0257031 104.316451,27.8804544 104.316451,28.9541716 L104.316451,32.9046063 C104.316451,33.3153937 104.341786,33.939718 104.390646,34.77396 L102.244418,34.7775793 Z M100.887192,32.9353702 C101.326544,32.7333913 101.720968,32.445419 102.047168,32.0884606 L102.047168,30.2462515 C101.543138,30.1868125 101.03636,30.1535911 100.528884,30.1467215 C99.5902859,30.1467215 98.9412299,30.2981277 98.5817156,30.6009401 C98.2201648,30.9050778 98.0197205,31.3594185 98.0388249,31.8314924 C98.0388249,32.3225069 98.1691187,32.684434 98.4297062,32.9172738 C98.7255904,33.1686179 99.1059995,33.2980087 99.493772,33.2792009 C99.9783716,33.2722246 100.454972,33.154622 100.887192,32.9353702 Z" id="Shape" fill="#FFFFFF" fill-rule="nonzero"></path>
            <path d="M106.30343,32.3924794 L106.30343,20.6533725 L108.567286,20.4724089 L108.567286,31.9907403 C108.567286,32.4141951 108.639671,32.7145946 108.784442,32.8955582 C108.9602,33.0843502 109.213405,33.1812229 109.470294,33.1579553 C109.673335,33.1486593 109.874484,33.114628 110.069283,33.0566157 L110.3353,34.6852879 C110.081007,34.7823199 109.817131,34.8520802 109.548108,34.893396 C109.257528,34.9430271 108.963406,34.9690502 108.668625,34.9712103 C107.090623,34.9651782 106.302225,34.1056013 106.30343,32.3924794 Z" id="Path" fill="#FFFFFF" fill-rule="nonzero"></path>
            <path d="M111.965781,32.3924794 L111.965781,20.6533725 L114.229636,20.4724089 L114.229636,31.9907403 C114.229636,32.4141951 114.302021,32.7145946 114.446792,32.8955582 C114.622863,33.0838857 114.875832,33.1806681 115.132644,33.1579553 C115.335699,33.1487856 115.536863,33.1147518 115.731633,33.0566157 L115.999459,34.6852879 C115.744538,34.7823005 115.480065,34.8520585 115.210458,34.893396 C114.919878,34.9430271 114.625756,34.9690502 114.330975,34.9712103 C112.755386,34.9651782 111.966988,34.1056013 111.965781,32.3924794 Z" id="Path" fill="#FFFFFF" fill-rule="nonzero"></path>
            <path d="M125.427662,30.099671 L118.92745,30.099671 C119.029996,32.1807521 120.021073,33.2212926 121.900682,33.2212926 C122.383368,33.2197365 122.864273,33.1626594 123.333913,33.0511868 C123.81413,32.9394178 124.283929,32.7868544 124.73819,32.5951586 L125.234031,34.1514454 C124.063168,34.7045919 122.781072,34.9819355 121.486275,34.9621622 C120.430654,34.9621622 119.540313,34.762499 118.815253,34.3631727 C118.104704,33.9744736 117.534797,33.3716389 117.18658,32.6403995 C116.801352,31.7887026 116.61567,30.8602924 116.64369,29.9259459 C116.617613,28.9488917 116.815708,27.9788484 117.222773,27.0902468 C117.573587,26.3424472 118.135274,25.7134587 118.838778,25.280611 C119.561548,24.8544246 120.3886,24.6376367 121.227497,24.6544771 C122.166095,24.6544771 122.95027,24.8740462 123.580024,25.3131845 C124.206449,25.7497186 124.692454,26.3589535 124.978872,27.0667215 C125.288826,27.8388636 125.441409,28.6651451 125.427662,29.4970623 L125.427662,30.099671 Z M123.209048,28.6519624 C123.165617,27.8611516 122.966557,27.2657814 122.610059,26.8712808 C122.245524,26.4717263 121.722611,26.2543428 121.182256,26.2777203 C120.636662,26.2615271 120.110052,26.478754 119.734548,26.8749001 C119.350905,27.2742264 119.100572,27.8665805 118.983549,28.6519624 L123.209048,28.6519624 Z" id="Shape" fill="#FFFFFF" fill-rule="nonzero"></path>
            <path d="M127.260823,27.3381669 C127.260823,26.7916569 127.236091,25.9598277 127.186627,24.8426792 L129.312949,24.8426792 C129.350952,25.1177438 129.385335,25.4489072 129.419718,25.8325499 C129.454101,26.2161927 129.475817,26.5274501 129.488484,26.766322 C129.717916,26.3792793 129.978137,26.0113376 130.266627,25.6660635 C130.518212,25.3725223 130.821138,25.1272381 131.160588,24.9422092 C131.518249,24.7511765 131.918764,24.6546294 132.324183,24.6617156 C132.629488,24.6556065 132.93412,24.6927715 133.229001,24.7721034 L132.943079,26.7427967 C132.703891,26.6729822 132.455712,26.6388347 132.206557,26.6414571 C131.708848,26.6314506 131.220023,26.7741824 130.805899,27.0504348 C130.307977,27.4268832 129.875683,27.8830236 129.526486,28.400423 L129.526486,34.7811986 L127.260823,34.7811986 L127.260823,27.3381669 Z" id="Path" fill="#FFFFFF" fill-rule="nonzero"></path>
            <path d="M134.591657,38.8420212 C134.313702,38.7976221 134.03962,38.7316732 133.771892,38.6447709 L134.186298,36.9871445 C134.376987,37.0389589 134.570285,37.0806389 134.765382,37.1120094 C134.984084,37.1505127 135.205646,37.1704896 135.427709,37.1717274 C136.436279,37.1717274 137.1915,36.5238778 137.693373,35.2281786 L137.839953,34.8662515 L134.17725,24.8481081 L136.616639,24.8481081 L138.458848,30.4453114 C138.697284,31.1661099 138.890685,31.9010327 139.037932,32.6458284 C139.209244,31.9219741 139.411923,31.204152 139.645969,30.4923619 L141.513514,24.8426792 L143.806322,24.8426792 L140.150858,34.9060635 C139.876629,35.7167942 139.502149,36.4900727 139.036122,37.2079201 C138.680471,37.7518831 138.194683,38.1984841 137.622797,38.5072385 C137.011456,38.8048482 136.337187,38.9501327 135.657532,38.9306933 C135.300312,38.9328633 134.943608,38.9031885 134.591657,38.8420212 L134.591657,38.8420212 Z" id="Path" fill="#FFFFFF" fill-rule="nonzero"></path>
            <path d="M31.1890717,8.40213866 L18.340658,8.40213866 C12.3055229,8.40213866 10.0832902,10.6135135 10.0832902,16.6649354 L10.0832902,29.513349 C10.0832902,35.5629612 12.2964747,37.7761457 18.346087,37.7761457 L31.1945006,37.7761457 C37.2441128,37.7761457 39.4609166,35.5629612 39.4609166,29.513349 L39.4609166,16.6649354 C39.4500588,10.6135135 37.2386839,8.40213866 31.1890717,8.40213866 Z" id="Path" fill="#C8102E"></path>
            <path d="M15.8994595,23.0891422 L16.6776028,23.0891422 L16.6776028,26.9291892 L15.8994595,26.9291892 L15.8994595,25.3692832 L14.1404935,25.3692832 L14.1404935,26.9291892 L13.3605405,26.9291892 L13.3605405,23.0891422 L14.1404935,23.0891422 L14.1404935,24.6381904 L15.8994595,24.6381904 L15.8994595,23.0891422 Z M20.2878261,25.28604 C20.2878261,25.9103643 19.9783784,26.2433373 19.4155817,26.2433373 C18.852785,26.2433373 18.5379083,25.9013161 18.5379083,25.2588954 L18.5379083,23.0873325 L17.7579553,23.0873325 L17.7579553,25.2824207 C17.7579553,26.3682021 18.3587544,26.9816686 19.4047239,26.9816686 C20.4506933,26.9816686 21.0659694,26.3519154 21.0659694,25.2516569 L21.0659694,23.080094 L20.2878261,23.080094 L20.2878261,25.28604 Z M29.2907638,25.7294007 L28.420329,23.0891422 L27.7833373,23.0891422 L26.9129025,25.7294007 L26.0587544,23.0909518 L25.2299412,23.0909518 L26.567262,26.9273796 L27.213302,26.9273796 L28.0855464,24.406557 L28.9577908,26.9273796 L29.6092597,26.9273796 L30.9447709,23.0909518 L30.1358637,23.0909518 L29.2907638,25.7294007 Z M32.3454289,25.2751821 L33.7623737,25.2751821 L33.7623737,24.5766627 L32.3454289,24.5766627 L32.3454289,23.7912808 L34.4029847,23.7912808 L34.4029847,23.0909518 L31.5781434,23.0909518 L31.5781434,26.9255699 L34.4735605,26.9255699 L34.4735605,26.2270505 L32.3454289,26.2270505 L32.3454289,25.2751821 Z M35.4055229,26.9237603 L36.1746181,26.9237603 L36.1746181,23.0891422 L35.4055229,23.0891422 L35.4055229,26.9237603 Z M22.6059694,26.1257109 L22.2585194,26.9255699 L21.4622797,26.9255699 L23.1524794,23.0891422 L23.840141,23.0891422 L25.5249119,26.9255699 L24.7087662,26.9255699 L24.3631257,26.1257109 L22.6059694,26.1257109 Z M22.8955112,25.4344301 L24.0681551,25.4344301 L23.4836428,24.0681551 L22.8955112,25.4344301 Z" id="Shape" fill="#FFFFFF" fill-rule="nonzero"></path>
            <path d="M24.7684841,18.1995095 C22.0700118,18.1995095 19.8824677,16.0119624 19.8824677,13.31349 L20.5737485,13.31349 C20.6211799,15.5977176 22.4864786,17.424686 24.7711986,17.424686 C27.0559186,17.424686 28.9212173,15.5977176 28.9686486,13.31349 L29.6599295,13.31349 C29.6599295,14.6102833 29.1444099,15.8538842 28.2269295,16.7703462 C27.3094492,17.6868083 26.0652766,18.2009473 24.7684841,18.1995095 L24.7684841,18.1995095 Z" id="Path" fill="#FFFFFF" fill-rule="nonzero"></path>
            <polygon id="Path" fill="#FFFFFF" fill-rule="nonzero" points="48.0675441 8.44556992 52.1717979 8.44556992 52.0577908 9.43544066 49.2709518 9.43544066 49.2709518 11.3554642 51.8985429 11.3554642 51.8985429 12.2856169 49.2709518 12.2856169 49.2709518 14.4119389 52.206181 14.4119389 52.1048414 15.4126675 48.0675441 15.4126675"></polygon>
            <polygon id="Path" fill="#FFFFFF" fill-rule="nonzero" points="54.9622562 11.8567333 52.7906933 8.44556992 54.1569683 8.44556992 55.6245828 10.9519154 57.1844888 8.44556992 58.5127615 8.44556992 56.3574853 11.813302 58.6810576 15.4126675 57.2966863 15.4126675 55.6354407 12.6674501 53.9470505 15.4108578 52.6187779 15.4108578"></polygon>
            <path d="M59.5370153,8.44556992 L61.4136075,8.44556992 C62.2955033,8.44556992 62.9704975,8.62653349 63.4385899,8.98846063 C63.9066823,9.35038778 64.1413318,9.86975323 64.1425382,10.546557 C64.1498455,10.9744039 64.0369925,11.3957218 63.8168038,11.7626322 C63.6074565,12.10649 63.3024748,12.3819168 62.9391304,12.5552526 C62.5349863,12.7461774 62.0921268,12.8409431 61.6452409,12.8321269 C61.3413261,12.8280685 61.0384349,12.795962 60.740423,12.7362162 L60.740423,15.4126675 L59.5370153,15.4126675 L59.5370153,8.44556992 Z M62.553678,11.5563337 C62.8195003,11.3000485 62.9602661,10.9405338 62.9391304,10.5718919 C62.9391304,10.1411986 62.8082335,9.83175088 62.5464395,9.64354877 C62.2858519,9.46258519 61.9003995,9.35943596 61.3937015,9.35943596 L60.7313749,9.35943596 L60.7313749,11.833208 C60.9604084,11.8733614 61.1920392,11.8969479 61.4244653,11.9037838 C61.9154798,11.9037838 62.288868,11.7879671 62.5446298,11.5563337 L62.553678,11.5563337 Z" id="Shape" fill="#FFFFFF" fill-rule="nonzero"></path>
            <polygon id="Path" fill="#FFFFFF" fill-rule="nonzero" points="65.2826087 8.44556992 66.4842068 8.44556992 66.4842068 14.3829847 69.3669565 14.3829847 69.2656169 15.4126675 65.2844183 15.4126675"></polygon>
            <path d="M71.5511868,15.0706463 C71.0476012,14.786932 70.640456,14.3589884 70.3821622,13.8419036 C70.1022391,13.2695311 69.9632544,12.6385156 69.9768038,12.0015041 C69.9621002,11.3336768 70.1099054,10.6722794 70.4074971,10.0742421 C70.6845609,9.53451312 71.1169471,9.09015117 71.6489072,8.79844888 C72.23738,8.4870662 72.8961359,8.33250474 73.5616921,8.34965922 C74.1925115,8.33362738 74.8164972,8.48338395 75.3713278,8.7839718 C75.8709778,9.06763682 76.2743295,9.49430723 76.5294947,10.0090952 C76.8055097,10.5781251 76.9425734,11.2045248 76.9294242,11.8368273 C76.9461473,12.5124278 76.7963701,13.181764 76.493302,13.7858049 C76.2142445,14.3217958 75.7821364,14.7627224 75.2518919,15.0525499 C74.6698591,15.3618163 74.0179092,15.5157663 73.3590129,15.49953 C72.7292459,15.5173319 72.105846,15.3694382 71.5511868,15.0706463 L71.5511868,15.0706463 Z M74.6691892,14.2164982 C75.008189,13.9874257 75.2709768,13.6622494 75.4238073,13.2827262 C75.5970576,12.8509614 75.6819746,12.3888406 75.673537,11.9236898 C75.6845768,11.4687695 75.612835,11.0156308 75.4618096,10.586369 C75.3217148,10.2079133 75.0691098,9.88142128 74.7379553,9.65078731 C74.3688849,9.40434834 73.9308524,9.2820035 73.4874971,9.30152761 C73.046155,9.29036904 72.612283,9.41686232 72.246087,9.66345476 C71.9069887,9.89755609 71.6414946,10.2233043 71.480611,10.6026557 C71.3067821,11.0179486 71.2199414,11.4644702 71.2254524,11.9146416 C71.2222571,12.3775043 71.3089117,12.836589 71.480611,13.2664395 C71.6240765,13.644976 71.8758315,13.9728869 72.2044653,14.2092597 C72.5671126,14.4503867 72.9961687,14.5718893 73.4313984,14.5567098 C73.8689466,14.571433 74.3006314,14.4527828 74.6691892,14.2164982 L74.6691892,14.2164982 Z M72.6098237,7.92620447 L73.8657109,6.44773208 L75.1324559,6.56354877 L73.3608226,8.03116334 L72.6098237,7.92620447 Z" id="Shape" fill="#FFFFFF" fill-rule="nonzero"></path>
            <path d="M78.2377908,8.44556992 L80.4184019,8.44556992 C81.2122288,8.44556992 81.8154407,8.60421465 82.2280376,8.92150411 C82.6406023,9.24919092 82.8691656,9.75621032 82.8415041,10.2823502 C82.848435,10.6206082 82.7726473,10.9554406 82.6207286,11.2577438 C82.4876092,11.520467 82.3029806,11.7537144 82.0778378,11.9435958 C81.8752088,12.1100948 81.6473575,12.2432626 81.4028437,12.3380964 L83.5454524,15.4144771 L82.1502233,15.4144771 L80.3405875,12.652973 L79.4430082,12.652973 L79.4430082,15.4126675 L78.2396005,15.4126675 L78.2377908,8.44556992 Z M80.1234313,11.7409166 C80.3914697,11.7467162 80.6570153,11.6883954 80.8979553,11.5708108 C81.1153169,11.4638395 81.2974462,11.296783 81.4227497,11.0894477 C81.5488842,10.8695545 81.6115293,10.6189743 81.6037133,10.3655934 C81.6279975,10.0706405 81.5038323,9.78295727 81.2725499,9.59830787 C80.9831609,9.41815066 80.6445379,9.33333666 80.3043948,9.35581669 L79.4430082,9.35581669 L79.4430082,11.7409166 L80.1234313,11.7409166 Z" id="Shape" fill="#FFFFFF" fill-rule="nonzero"></path>
            <path d="M88.2450764,13.5451234 L85.4546181,13.5451234 L84.7723854,15.4126675 L83.5454524,15.4126675 L86.2780024,8.44014101 L87.4379788,8.44014101 L90.2320564,15.4126675 L88.9435958,15.4126675 L88.2450764,13.5451234 Z M85.8056874,12.5968743 L87.8885781,12.5968743 L87.1430082,10.606275 C87.0416686,10.3287975 86.9409322,10.0271915 86.8407991,9.70145711 C86.7503173,9.99642773 86.6598355,10.2968273 86.5476381,10.606275 L85.8056874,12.5968743 Z" id="Shape" fill="#FFFFFF" fill-rule="nonzero"></path>
            <polygon id="Path" fill="#FFFFFF" fill-rule="nonzero" points="91.0789659 8.44556992 92.2914219 8.44556992 92.2914219 14.3829847 95.1723619 14.3829847 95.072832 15.4126675 91.0916334 15.4126675"></polygon>
            <path d="M97.3475441,15.0706463 C96.8445737,14.7861426 96.4376323,14.3584131 96.1785194,13.8419036 C95.8992212,13.2693763 95.7608586,12.6383682 95.7749706,12.0015041 C95.759392,11.3335903 95.9072436,10.6719852 96.2056639,10.0742421 C96.4821794,9.53411936 96.9147054,9.08961375 97.447074,8.79844888 C98.0349225,8.48713859 98.6930772,8.33257196 99.3580494,8.34965922 C99.9889135,8.33320221 100.613008,8.48298477 101.167685,8.7839718 C101.667868,9.06752896 102.071831,9.49417953 102.327662,10.0090952 C102.603052,10.5782786 102.739494,11.204671 102.725781,11.8368273 C102.742177,12.5121896 102.593071,13.1813057 102.291469,13.7858049 C102.011878,14.3214083 101.579905,14.7621966 101.050059,15.0525499 C100.471977,15.3628402 99.8240344,15.5198417 99.1680376,15.5085781 C98.5331894,15.5258473 97.9050834,15.3747522 97.3475441,15.0706463 Z M100.465546,14.2164982 C100.804546,13.9874257 101.067334,13.6622494 101.220165,13.2827262 C101.394894,12.8513391 101.480459,12.3890374 101.471704,11.9236898 C101.479262,11.4681035 101.403838,11.0149457 101.249119,10.586369 C101.114081,10.2102109 100.867963,9.88394692 100.543361,9.65078731 C100.173519,9.40455497 99.7349861,9.28224724 99.2910928,9.30152761 C98.849782,9.29060931 98.4159815,9.41708174 98.0496827,9.66345476 C97.7092451,9.8999947 97.4436257,10.2290363 97.2842068,10.6117039 C97.1109979,11.0271274 97.024774,11.4736442 97.0308578,11.9236898 C97.0235171,12.3854016 97.1045993,12.8442527 97.2697297,13.2754877 C97.5735577,14.0871386 98.3676073,14.6089427 99.2331845,14.5657579 C99.6698449,14.5766871 100.09955,14.4549059 100.465546,14.2164982 L100.465546,14.2164982 Z" id="Shape" fill="#FFFFFF" fill-rule="nonzero"></path>
            <polygon id="Path" fill="#FFFFFF" fill-rule="nonzero" points="107.070717 8.44556992 111.174971 8.44556992 111.059154 9.43544066 108.272315 9.43544066 108.272315 11.3554642 110.899906 11.3554642 110.899906 12.2856169 108.272315 12.2856169 108.272315 14.4119389 111.207544 14.4119389 111.111633 15.4126675 107.070717 15.4126675"></polygon>
            <path d="M112.524959,8.44556992 L113.907521,8.44556992 L117.345828,13.8437133 C117.316874,13.3297767 117.304207,12.8574618 117.304207,12.4249589 L117.304207,8.44376028 L118.418942,8.44376028 L118.418942,15.4108578 L117.083431,15.4108578 L113.589025,9.92766157 C113.625217,10.5501763 113.641504,11.1003055 113.641504,11.5816686 L113.641504,15.4126675 L112.524959,15.4126675 L112.524959,8.44556992 Z" id="Path" fill="#FFFFFF" fill-rule="nonzero"></path>
        </g>
    </g>
</svg>