<svg width="153" height="46" viewBox="0 0 153 46" fill="none" xmlns="http://www.w3.org/2000/svg">
<g clip-path="url(#clip0)">
<path d="M152.026 40.5676C152.026 41.1465 151.913 41.7197 151.695 42.2545C151.476 42.7893 151.156 43.2751 150.752 43.6842C150.348 44.0934 149.868 44.4178 149.341 44.6389C148.813 44.86 148.248 44.9735 147.677 44.9729H5.3639C4.21045 44.9741 3.10374 44.5107 2.28717 43.6846C1.4706 42.8585 1.01102 41.7373 1.00952 40.5676V5.43637C1.01102 4.26614 1.47041 3.14435 2.28682 2.31731C3.10323 1.49026 4.20993 1.02557 5.3639 1.02527H147.676C148.247 1.02527 148.813 1.13937 149.34 1.36107C149.868 1.58276 150.347 1.9077 150.751 2.31732C151.155 2.72694 151.475 3.21323 151.694 3.7484C151.912 4.28357 152.025 4.85715 152.024 5.43637L152.026 40.5676Z" fill="white"/>
<path d="M147.677 45.9975H5.36386C3.94294 45.9972 2.58017 45.4253 1.57457 44.4073C0.56898 43.3892 0.00270362 42.0082 0 40.5673L0 5.43726C0.00210205 3.99561 0.568005 2.61367 1.57357 1.5946C2.57913 0.575524 3.94223 0.00252906 5.36386 0.00131226L147.676 0.00131226C149.097 0.00313622 150.46 0.576326 151.465 1.59527C152.471 2.61421 153.037 3.9958 153.04 5.43726V40.5673C153.042 43.5625 150.632 45.9975 147.677 45.9975Z" fill="#A6A6A6"/>
<path d="M152.026 40.5676C152.026 41.1465 151.913 41.7197 151.695 42.2545C151.476 42.7893 151.156 43.2751 150.752 43.6842C150.348 44.0934 149.868 44.4178 149.341 44.6389C148.813 44.86 148.248 44.9735 147.677 44.9729H5.3639C4.21045 44.9741 3.10374 44.5107 2.28717 43.6846C1.4706 42.8585 1.01102 41.7373 1.00952 40.5676V5.43637C1.01102 4.26614 1.47041 3.14435 2.28682 2.31731C3.10323 1.49026 4.20993 1.02557 5.3639 1.02527H147.676C148.247 1.02527 148.813 1.13937 149.34 1.36107C149.868 1.58276 150.347 1.9077 150.751 2.31732C151.155 2.72694 151.475 3.21323 151.694 3.7484C151.912 4.28357 152.025 4.85715 152.024 5.43637L152.026 40.5676Z" fill="black"/>
<path d="M34.1726 22.7579C34.1397 19.0507 37.1659 17.2472 37.3043 17.1632C35.5904 14.6293 32.934 14.283 32.0005 14.2554C29.7695 14.0173 27.6053 15.6092 26.4688 15.6092C25.3096 15.6092 23.5594 14.2784 21.6732 14.3176C19.2459 14.3555 16.9751 15.7806 15.7297 17.9937C13.1595 22.506 15.0764 29.137 17.5388 32.7843C18.7706 34.5718 20.21 36.5651 22.094 36.4949C23.9371 36.419 24.6256 35.3045 26.8499 35.3045C29.0537 35.3045 29.7003 36.4949 31.6217 36.4501C33.5998 36.419 34.8452 34.6557 36.0339 32.8533C37.4574 30.8071 38.0291 28.7896 38.0517 28.6861C38.0064 28.67 34.2112 27.2 34.1726 22.7579ZM30.543 11.8561C31.5343 10.5989 32.2126 8.88851 32.0243 7.15283C30.5895 7.21724 28.7951 8.15927 27.7618 9.38886C26.8476 10.4724 26.031 12.2483 26.2419 13.9184C27.8537 14.0403 29.5086 13.0937 30.543 11.8561Z" fill="white"/>
<path d="M147.677 0.00177002H71.4494L101.306 45.998H147.677C149.098 45.9968 150.461 45.4241 151.466 44.4055C152.472 43.3869 153.038 42.0056 153.04 40.5643V5.43772C153.038 3.99616 152.472 2.6144 151.467 1.59539C150.461 0.576383 149.098 0.00329052 147.677 0.00177002V0.00177002Z" fill="url(#paint0_linear)"/>
<path d="M60.8693 36.2385H58.2934L56.8824 31.7423H51.9779L50.6339 36.2385H48.126L52.9863 20.9313H55.9875L60.8693 36.2385ZM56.4571 29.8559L55.1811 25.8589C55.0461 25.4505 54.792 24.489 54.42 22.9753H54.3746C54.2249 23.6263 53.9856 24.5879 53.6578 25.8589L52.4033 29.8559H56.4571ZM73.3438 30.584C73.3438 32.4611 72.8413 33.9449 71.8352 35.0342C70.9346 36.0038 69.8151 36.4881 68.4801 36.4881C67.0385 36.4881 66.0018 35.967 65.3723 34.9226V40.714H62.9541V28.8287C62.9541 27.6498 62.9234 26.4409 62.8645 25.201H64.9912L65.1262 26.9504H65.1715C65.978 25.6323 67.2018 24.9732 68.8442 24.9732C70.1282 24.9732 71.2001 25.4874 72.0575 26.5168C72.9139 27.5486 73.3438 28.9035 73.3438 30.584ZM70.8802 30.6737C70.8802 29.5994 70.642 28.7137 70.1634 28.0155C69.6405 27.2898 68.9384 26.9263 68.0582 26.9263C67.4616 26.9263 66.9194 27.1287 66.4351 27.5278C65.9496 27.9304 65.632 28.4561 65.4834 29.1071C65.4171 29.3506 65.3794 29.6011 65.3712 29.8536V31.6951C65.3712 32.4968 65.6139 33.1743 66.0993 33.7287C66.5848 34.2808 67.2154 34.558 67.9913 34.558C68.9021 34.558 69.611 34.2003 70.118 33.4906C70.6261 32.7786 70.8802 31.84 70.8802 30.6737ZM85.8625 30.584C85.8625 32.4611 85.36 33.9449 84.3539 35.0342C83.4522 36.0038 82.3338 36.4881 80.9977 36.4881C79.5561 36.4881 78.5194 35.967 77.8899 34.9226V40.714H75.4716V28.8287C75.4716 27.6498 75.441 26.4409 75.382 25.201H77.5087L77.6437 26.9504H77.6891C78.4944 25.6323 79.7183 24.9732 81.3618 24.9732C82.6446 24.9732 83.7165 25.4874 84.5763 26.5168C85.4315 27.5486 85.8625 28.9035 85.8625 30.584ZM83.3978 30.6737C83.3978 29.5994 83.1584 28.7137 82.6798 28.0155C82.1569 27.2898 81.4571 26.9263 80.5769 26.9263C79.9803 26.9263 79.4381 27.1287 78.9515 27.5278C78.4661 27.9304 78.1496 28.4561 78.001 29.1071C77.9273 29.4108 77.8876 29.6581 77.8876 29.8536V31.6951C77.8876 32.4968 78.1314 33.1743 78.6146 33.7287C79.1001 34.2796 79.7307 34.558 80.5088 34.558C81.4208 34.558 82.1297 34.2003 82.6356 33.4906C83.1437 32.7786 83.3978 31.84 83.3978 30.6737ZM99.8591 31.9447C99.8591 33.2479 99.41 34.3072 98.5173 35.125C97.535 36.0176 96.1637 36.4651 94.4057 36.4651C92.7814 36.4651 91.4793 36.1476 90.497 35.5115L91.0562 33.4676C92.1167 34.1048 93.2816 34.4223 94.5497 34.4223C95.4616 34.4223 96.1705 34.2129 96.6764 33.7977C97.1834 33.3813 97.4398 32.8246 97.4398 32.1299C97.4398 31.5076 97.2277 30.9866 96.8114 30.5621C96.3928 30.1388 95.701 29.7443 94.7289 29.382C92.0861 28.3825 90.7636 26.9205 90.7636 24.9974C90.7636 23.7413 91.2309 22.713 92.1632 21.909C93.0956 21.1062 94.3319 20.7047 95.87 20.7047C97.2435 20.7047 98.388 20.9474 99.2965 21.4317L98.6897 23.4308C97.8345 22.9615 96.8692 22.7268 95.7894 22.7268C94.9365 22.7268 94.2673 22.9396 93.7886 23.3629C93.386 23.7413 93.1818 24.2026 93.1818 24.7501C93.1818 25.3539 93.4143 25.8554 93.8771 26.2488C94.2786 26.6111 95.0113 27.0056 96.0707 27.4289C97.3706 27.9603 98.3256 28.5791 98.937 29.29C99.5529 30.0008 99.8591 30.8876 99.8591 31.9447ZM107.875 27.0413H105.209V32.4002C105.209 33.7632 105.679 34.443 106.62 34.443C107.053 34.443 107.411 34.4062 107.695 34.3291L107.761 36.1913C107.285 36.3719 106.658 36.4628 105.881 36.4628C104.926 36.4628 104.179 36.1671 103.641 35.5759C103.104 34.9847 102.834 33.9944 102.834 32.6003V27.0367H101.246V25.1963H102.834V23.1754L105.209 22.4485V25.1963H107.875V27.0413ZM119.877 30.6288C119.877 32.3254 119.399 33.7183 118.444 34.8076C117.445 35.9291 116.115 36.4881 114.458 36.4881C112.859 36.4881 111.587 35.9509 110.639 34.8778C109.691 33.8023 109.217 32.4473 109.217 30.8129C109.217 29.1025 109.707 27.7015 110.683 26.6123C111.662 25.5219 112.98 24.9767 114.637 24.9767C116.234 24.9767 117.517 25.515 118.488 26.5893C119.416 27.6314 119.877 28.9771 119.877 30.6288ZM117.371 30.6852C117.371 29.6742 117.155 28.8069 116.723 28.0811C116.216 27.2046 115.49 26.7664 114.55 26.7664C113.581 26.7664 112.838 27.2046 112.332 28.0811C111.899 28.8069 111.684 29.6891 111.684 30.7312C111.684 31.7434 111.899 32.613 112.332 33.3365C112.855 34.2129 113.585 34.6512 114.529 34.6512C115.454 34.6512 116.179 34.2037 116.703 33.3146C117.147 32.5716 117.371 31.6985 117.371 30.6852ZM127.741 27.3576C127.49 27.3116 127.235 27.2889 126.979 27.2898C126.128 27.2898 125.47 27.6141 125.008 28.2674C124.606 28.8425 124.404 29.5695 124.404 30.4471V36.2385H121.986V28.6769C121.988 27.5183 121.965 26.3597 121.916 25.2021H124.022L124.11 27.3139H124.177C124.434 26.5881 124.835 26.0027 125.387 25.5644C125.891 25.1815 126.504 24.9741 127.134 24.9732C127.358 24.9732 127.56 24.9893 127.739 25.0181L127.741 27.3576ZM138.556 30.1975C138.562 30.5703 138.533 30.9428 138.468 31.3098H131.213C131.24 32.4002 131.592 33.2352 132.266 33.8103C132.877 34.3233 133.668 34.581 134.639 34.581C135.713 34.581 136.693 34.4085 137.574 34.0599L137.953 35.7611C136.923 36.2166 135.707 36.4432 134.304 36.4432C132.616 36.4432 131.291 35.9394 130.327 34.9341C129.365 33.9277 128.883 32.575 128.883 30.8807C128.883 29.2175 129.331 27.8315 130.229 26.7261C131.168 25.546 132.437 24.956 134.034 24.956C135.603 24.956 136.79 25.546 137.597 26.7261C138.235 27.6613 138.556 28.8207 138.556 30.1975ZM136.25 29.5614C136.267 28.8333 136.109 28.2065 135.781 27.6762C135.362 26.993 134.718 26.6525 133.855 26.6525C133.064 26.6525 132.42 26.9849 131.93 27.6521C131.527 28.1823 131.288 28.8195 131.214 29.5591L136.25 29.5614Z" fill="white"/>
<path d="M51.2805 15.5192C50.6079 15.5192 50.026 15.4858 49.5417 15.4295V8.02896C50.2191 7.92285 50.9036 7.87055 51.589 7.87253C54.3622 7.87253 55.6394 9.25625 55.6394 11.5118C55.6394 14.1136 54.1309 15.5192 51.2805 15.5192ZM51.6865 8.82147C51.3122 8.82147 50.9935 8.84447 50.7292 8.89968V14.5254C50.8722 14.5484 51.1466 14.5588 51.5323 14.5588C53.3494 14.5588 54.3838 13.5098 54.3838 11.5452C54.3838 9.7934 53.448 8.82147 51.6865 8.82147ZM59.6195 15.5756C58.0565 15.5756 57.0436 14.392 57.0436 12.7851C57.0436 11.1104 58.078 9.91647 59.7079 9.91647C61.2483 9.91647 62.2838 11.0437 62.2838 12.6966C62.2838 14.392 61.2165 15.5756 59.6195 15.5756ZM59.6649 10.7975C58.8062 10.7975 58.2561 11.6119 58.2561 12.7506C58.2561 13.8675 58.8176 14.6818 59.6535 14.6818C60.4894 14.6818 61.0509 13.8111 61.0509 12.7276C61.0509 11.6234 60.5008 10.7975 59.6649 10.7975ZM71.1968 10.028L69.5237 15.4525H68.4337L67.7407 13.0968C67.5684 12.5206 67.4249 11.936 67.3108 11.345H67.2881C67.2008 11.9363 67.0352 12.5286 66.8594 13.0968L66.1221 15.4525H65.0208L63.4464 10.028H64.668L65.2737 12.6068C65.4166 13.2211 65.5369 13.8008 65.6367 14.3483H65.6594C65.7467 13.8916 65.8896 13.3211 66.0994 12.6183L66.8594 10.0292H67.828L68.5551 12.5631C68.7309 13.1773 68.8738 13.7801 68.985 14.3494H69.0167C69.0939 13.7916 69.2152 13.1992 69.3797 12.5631L70.0296 10.0292L71.1968 10.028ZM77.3557 15.4525H76.167V12.3377C76.167 11.3784 75.8041 10.8976 75.0884 10.8976C74.384 10.8976 73.8997 11.5118 73.8997 12.2261V15.4525H72.711V11.5785C72.711 11.0989 72.6996 10.5848 72.6667 10.0269H73.7125L73.7681 10.8643H73.801C74.1208 10.2845 74.7696 9.91647 75.4967 9.91647C76.6196 9.91647 77.3568 10.7872 77.3568 12.2043L77.3557 15.4525ZM80.6337 15.4525H79.4439V7.53897H80.6337V15.4525ZM84.9677 15.5756C83.4058 15.5756 82.3918 14.392 82.3918 12.7851C82.3918 11.1104 83.4262 9.91647 85.055 9.91647C86.5964 9.91647 87.6309 11.0437 87.6309 12.6966C87.632 14.392 86.5635 15.5756 84.9677 15.5756ZM85.0119 10.7975C84.1533 10.7975 83.6032 11.6119 83.6032 12.7506C83.6032 13.8675 84.1657 14.6818 84.9994 14.6818C85.8365 14.6818 86.3968 13.8111 86.3968 12.7276C86.3979 11.6234 85.849 10.7975 85.0119 10.7975ZM92.3176 15.4525L92.2314 14.8279H92.1996C91.8367 15.3306 91.307 15.5756 90.6355 15.5756C89.6771 15.5756 88.9965 14.8946 88.9965 13.9791C88.9965 12.6402 90.141 11.9478 92.1225 11.9478V11.8477C92.1225 11.1334 91.7493 10.7757 91.0121 10.7757C90.4846 10.7757 90.0219 10.9103 89.6147 11.1783L89.3731 10.3858C89.8676 10.0729 90.4846 9.91647 91.2094 9.91647C92.6068 9.91647 93.3123 10.6641 93.3123 12.1606V14.1585C93.3123 14.706 93.3361 15.1304 93.3894 15.4536L92.3176 15.4525ZM92.1543 12.7506C90.834 12.7506 90.1716 13.075 90.1716 13.8445C90.1716 14.4138 90.513 14.6922 90.9871 14.6922C91.5917 14.6922 92.1543 14.224 92.1543 13.588V12.7506ZM99.0845 15.4525L99.0289 14.5818H98.996C98.6546 15.2397 98.0807 15.5756 97.2788 15.5756C95.9891 15.5756 95.0341 14.4253 95.0341 12.807C95.0341 11.1104 96.0243 9.91533 97.3763 9.91533C98.092 9.91533 98.599 10.1603 98.8849 10.6526H98.9087V7.53897H100.099V13.9906C100.099 14.5151 100.111 15.0062 100.143 15.4525H99.0845ZM98.9087 12.2606C98.9087 11.5015 98.413 10.8539 97.6565 10.8539C96.7752 10.8539 96.2364 11.6464 96.2364 12.7621C96.2364 13.856 96.7956 14.6048 97.6327 14.6048C98.3801 14.6048 98.9087 13.9457 98.9087 13.1647V12.2606ZM107.642 15.5756C106.081 15.5756 105.068 14.392 105.068 12.7851C105.068 11.1104 106.102 9.91647 107.731 9.91647C109.272 9.91647 110.307 11.0437 110.307 12.6966C110.308 14.392 109.241 15.5756 107.642 15.5756ZM107.687 10.7975C106.829 10.7975 106.279 11.6119 106.279 12.7506C106.279 13.8675 106.84 14.6818 107.675 14.6818C108.512 14.6818 109.073 13.8111 109.073 12.7276C109.075 11.6234 108.525 10.7975 107.687 10.7975ZM116.699 15.4525H115.51V12.3377C115.51 11.3784 115.147 10.8976 114.431 10.8976C113.727 10.8976 113.243 11.5118 113.243 12.2261V15.4525H112.053V11.5785C112.053 11.0989 112.042 10.5848 112.009 10.0269H113.055L113.111 10.8643H113.144C113.462 10.2845 114.112 9.91533 114.838 9.91533C115.961 9.91533 116.699 10.786 116.699 12.2031V15.4525ZM124.697 10.9321H123.389V13.5661C123.389 14.2367 123.618 14.5714 124.081 14.5714C124.291 14.5714 124.467 14.5484 124.608 14.5151L124.641 15.4306C124.411 15.5203 124.103 15.5652 123.719 15.5652C122.782 15.5652 122.222 15.0407 122.222 13.6673V10.9321H121.442V10.028H122.222V9.03426L123.389 8.67654V10.0269H124.697V10.9321ZM130.99 15.4525H129.802V12.3607C129.802 11.3899 129.44 10.8988 128.724 10.8988C128.108 10.8988 127.534 11.3232 127.534 12.1824V15.4525H126.346V7.53897H127.534V10.7975H127.558C127.932 10.2063 128.474 9.91533 129.166 9.91533C130.298 9.91533 130.99 10.8079 130.99 12.2261V15.4525ZM137.437 13.0301H133.87C133.892 14.0573 134.563 14.637 135.555 14.637C136.083 14.637 136.568 14.5473 136.997 14.3805L137.182 15.2178C136.676 15.441 136.08 15.5526 135.387 15.5526C133.714 15.5526 132.724 14.4805 132.724 12.8185C132.724 11.1553 133.738 9.90497 135.253 9.90497C136.62 9.90497 137.478 10.9321 137.478 12.4838C137.485 12.6669 137.472 12.8503 137.437 13.0301ZM136.347 12.1709C136.347 11.3335 135.931 10.7423 135.171 10.7423C134.488 10.7423 133.948 11.345 133.871 12.1709H136.347Z" fill="white"/>
</g>
<defs>
<linearGradient id="paint0_linear" x1="112.244" y1="46.1201" x2="112.244" y2="-119.764" gradientUnits="userSpaceOnUse">
<stop stop-color="#1A1A1A" stop-opacity="0.1"/>
<stop offset="0.123" stop-color="#212121" stop-opacity="0.151"/>
<stop offset="0.308" stop-color="#353535" stop-opacity="0.227"/>
<stop offset="0.532" stop-color="#575757" stop-opacity="0.318"/>
<stop offset="0.783" stop-color="#858585" stop-opacity="0.421"/>
<stop offset="1" stop-color="#B3B3B3" stop-opacity="0.51"/>
</linearGradient>
<clipPath id="clip0">
<rect width="153" height="46" fill="white"/>
</clipPath>
</defs>
</svg>
