<svg width="40" height="40" viewBox="0 0 40 40" fill="none" xmlns="http://www.w3.org/2000/svg">
<path d="M31.2924 4C31.7162 4 31.8857 4.25397 31.8857 4.67725V14.4974C31.8857 14.9206 31.5467 15.2593 31.1229 15.2593H30.6991C30.2752 15.2593 29.9362 15.5979 29.9362 16.0212V16.4444C29.9362 16.8677 30.2752 17.2063 30.6991 17.2063H31.1229C31.5467 17.2063 31.8857 17.545 31.8857 17.9683V35.2381C31.8857 35.6614 31.5467 36 31.1229 36H9.76286C9.33905 36 9 35.6614 9 35.2381V17.1217H10.1867C10.6105 17.1217 10.9495 16.7831 10.9495 16.3598V15.9365C10.9495 15.5132 10.6105 15.1746 10.1867 15.1746H9V9.92593C9 9.75661 9.08476 9.50265 9.25429 9.41799L14.5943 4.16931C14.7638 4 14.9333 4 15.1029 4H31.1229H31.2924Z" stroke="black" stroke-width="2" stroke-miterlimit="10" stroke-linecap="round" stroke-linejoin="round"/>
<path d="M23.1876 16.8677L19.4581 23.0476" stroke="#FC4646" stroke-linecap="round" stroke-linejoin="round"/>
<path d="M17 20.8466L19.4581 23.0476" stroke="#FC4646" stroke-linecap="round" stroke-linejoin="round"/>
</svg>
