<svg width="40" height="40" viewBox="0 0 80 80" fill="none" xmlns="http://www.w3.org/2000/svg">
<circle cx="40" cy="40" r="28.3333" stroke="black" stroke-width="3" stroke-linecap="round"/>
<path d="M40.3306 53.5096L40.3298 53.5092C37.383 51.9773 34.7077 50.0121 32.3033 47.6489C29.9834 45.2892 28.0151 42.5736 26.4793 39.6603L26.4787 39.6591C24.6733 36.2456 24.0707 33.4241 24.4349 30.9482L24.4349 30.9482L24.4367 30.9349C24.5796 29.8637 24.9379 28.8811 25.4686 27.8578C25.9723 26.8868 26.6591 26.0527 27.4644 25.3574C28.5051 24.4606 29.3805 24.2414 30.0287 24.366C30.0396 24.3681 30.0506 24.37 30.0616 24.3718C30.5084 24.4423 30.9952 24.7399 31.4658 25.3082C31.8271 25.7703 32.1048 26.3169 32.3225 26.8973C32.3259 26.9062 32.3294 26.9152 32.333 26.924C33.1136 28.8359 33.6265 30.8013 34.0285 32.5292C34.0322 32.5454 34.0364 32.5614 34.041 32.5774C34.1977 33.1258 34.3074 33.7355 34.1086 34.2572L34.1067 34.2621C33.9701 34.6263 33.697 34.8792 33.2382 35.2546C33.2105 35.2767 33.1807 35.3003 33.1494 35.325C32.9994 35.4433 32.8156 35.5883 32.6734 35.7304C32.1352 36.2685 32.184 37.0314 32.2713 37.4907C32.373 38.0261 32.613 38.6208 32.945 39.2207C33.6602 40.6002 34.9497 42.2176 36.3636 43.6311C37.8189 45.0861 39.3965 46.3345 40.7752 47.0487C41.3752 47.3806 41.97 47.6205 42.5054 47.7221C42.9648 47.8093 43.7276 47.8581 44.2657 47.3201C44.2991 47.2867 44.3302 47.2509 44.3586 47.213C44.3927 47.1676 44.4377 47.1154 44.5139 47.0283L44.5224 47.0187C44.584 46.9482 44.6699 46.8502 44.7499 46.7454C45.1208 46.2929 45.3728 46.0228 45.7345 45.8872L45.7394 45.8853C46.2069 45.7073 46.6682 45.8019 47.286 45.9287C47.35 45.9418 47.4158 45.9553 47.4833 45.9689C49.2081 46.3702 51.1683 46.8823 53.0753 47.6604L53.0752 47.6605L53.0818 47.6631C53.6559 47.8926 54.2372 48.1727 54.6917 48.5274C55.2255 48.9696 55.5254 49.4628 55.635 49.9696C55.7593 50.6654 55.5278 51.534 54.6566 52.5108C53.9112 53.3299 53.069 54.0214 52.1343 54.5257C51.1183 55.0516 50.0948 55.4115 49.0586 55.5544C49.0532 55.5551 49.0478 55.5559 49.0424 55.5568C49.0386 55.5574 49.0347 55.558 49.0309 55.5586C48.6041 55.6297 48.1323 55.6666 47.6543 55.6666C45.5202 55.6666 43.128 54.967 40.3306 53.5096Z" fill="#FC4646" stroke="black" stroke-width="2" stroke-linecap="round" stroke-linejoin="round"/>
</svg>
