<svg width="40" height="40" viewBox="0 0 40 40" fill="none" xmlns="http://www.w3.org/2000/svg">
<path d="M0 8C0 3.58172 3.58172 0 8 0H32C36.4183 0 40 3.58172 40 8V32C40 36.4183 36.4183 40 32 40H8C3.58172 40 0 36.4183 0 32V8Z" fill="white"/>
<path d="M5 10C5 7.79086 6.79086 6 9 6H31C33.2091 6 35 7.79086 35 10V34H9C6.79086 34 5 32.2091 5 30V10Z" stroke="black" stroke-width="2" stroke-linecap="round"/>
<path d="M18.3518 23.0645C18.3518 22.0609 18.4776 21.2616 18.7292 20.6667C18.9808 20.0717 19.4395 19.4875 20.1054 18.914C20.7788 18.3333 21.2264 17.8638 21.4484 17.5054C21.6704 17.1398 21.7814 16.7563 21.7814 16.3548C21.7814 15.1434 21.2042 14.5376 20.0499 14.5376C19.5024 14.5376 19.0622 14.7025 18.7292 15.0323C18.4036 15.3548 18.2334 15.8029 18.2186 16.3763H15C15.0148 15.0072 15.4698 13.9355 16.3651 13.1613C17.2679 12.3871 18.4961 12 20.0499 12C21.6186 12 22.8357 12.3692 23.7014 13.1075C24.5671 13.8387 25 14.8746 25 16.2151C25 16.8244 24.8594 17.4014 24.5782 17.9462C24.2971 18.4839 23.805 19.0824 23.1021 19.7419L22.2031 20.5699C21.6408 21.0932 21.3189 21.7061 21.2375 22.4086L21.1931 23.0645H18.3518ZM18.03 26.3656C18.03 25.8853 18.1964 25.491 18.5294 25.1828C18.8698 24.8674 19.3026 24.7097 19.828 24.7097C20.3533 24.7097 20.7825 24.8674 21.1154 25.1828C21.4558 25.491 21.626 25.8853 21.626 26.3656C21.626 26.8387 21.4595 27.2294 21.1265 27.5376C20.801 27.8459 20.3681 28 19.828 28C19.2878 28 18.8513 27.8459 18.5183 27.5376C18.1927 27.2294 18.03 26.8387 18.03 26.3656Z" fill="#FC4646"/>
</svg>
