<svg width="40" height="40" viewBox="0 0 40 40" fill="none" xmlns="http://www.w3.org/2000/svg">
<path d="M0 8C0 3.58172 3.58172 0 8 0H32C36.4183 0 40 3.58172 40 8V32C40 36.4183 36.4183 40 32 40H8C3.58172 40 0 36.4183 0 32V8Z" fill="white"/>
<ellipse cx="20.443" cy="23.151" rx="10.1823" ry="10.1823" stroke="black" stroke-width="2"/>
<circle cx="19.9997" cy="8.54167" r="3.04167" fill="white" stroke="black"/>
<path d="M13.3021 22.6042C13.3021 24.284 11.9403 25.6458 10.2604 25.6458C8.58055 25.6458 7.21875 24.284 7.21875 22.6042C7.21875 20.9243 8.58055 19.5625 10.2604 19.5625C11.9403 19.5625 13.3021 20.9243 13.3021 22.6042Z" fill="white" stroke="black"/>
<circle cx="29.7399" cy="22.6042" r="3.04167" fill="white" stroke="black"/>
<path d="M14.3018 16.083C14.3018 14.15 15.8688 12.583 17.8018 12.583H22.1976C24.1306 12.583 25.6976 14.15 25.6976 16.083V17.1663C25.6976 17.9948 25.026 18.6663 24.1976 18.6663H15.8018C14.9733 18.6663 14.3018 17.9948 14.3018 17.1663V16.083Z" fill="#FC4646" stroke="black"/>
<path d="M4.5625 30.1455C4.5625 28.2125 6.1295 26.6455 8.0625 26.6455H12.4583C14.3913 26.6455 15.9583 28.2125 15.9583 30.1455V31.2288C15.9583 32.0573 15.2868 32.7288 14.4583 32.7288H6.0625C5.23407 32.7288 4.5625 32.0573 4.5625 31.2288V30.1455Z" fill="#FC4646" stroke="black"/>
<path d="M24.042 30.1455C24.042 28.2125 25.609 26.6455 27.542 26.6455H31.9378C33.8708 26.6455 35.4378 28.2125 35.4378 30.1455V31.2288C35.4378 32.0573 34.7663 32.7288 33.9378 32.7288H25.542C24.7136 32.7288 24.042 32.0573 24.042 31.2288V30.1455Z" fill="#FC4646" stroke="black"/>
</svg>
