<svg width="40" height="40" viewBox="0 0 40 40" fill="none" xmlns="http://www.w3.org/2000/svg">
<g clip-path="url(#clip0)">
<path d="M0 8C0 3.58172 3.58172 0 8 0H32C36.4183 0 40 3.58172 40 8V32C40 36.4183 36.4183 40 32 40H8C3.58172 40 0 36.4183 0 32V8Z" fill="white"/>
<path d="M33.8522 30.6945L31.4268 10.6852C31.1834 8.6769 29.4789 7.1665 27.4559 7.1665H25.9587H14.5003H11.6281C9.60511 7.1665 7.90058 8.67689 7.65715 10.6852L5.23178 30.6945C4.79858 34.2684 7.58817 37.4165 11.1882 37.4165H27.8958C31.4958 37.4165 34.2854 34.2684 33.8522 30.6945Z" stroke="black" stroke-width="2" stroke-linecap="round"/>
<path fill-rule="evenodd" clip-rule="evenodd" d="M15.584 19.083C14.4794 19.083 13.584 19.9784 13.584 21.083V26.2497C13.584 27.3542 14.4794 28.2497 15.584 28.2497H21.834L24.584 30.083V28.2497H24.4173C25.5219 28.2497 26.4173 27.3542 26.4173 26.2497V21.083C26.4173 19.9784 25.5219 19.083 24.4173 19.083H15.584Z" fill="#FC4646"/>
<path d="M21.834 28.2497L22.1113 27.8337L21.9854 27.7497H21.834V28.2497ZM24.584 30.083L24.3066 30.499L25.084 31.0173V30.083H24.584ZM24.584 28.2497H25.084V27.7497H24.584V28.2497ZM14.084 21.083C14.084 20.2546 14.7556 19.583 15.584 19.583V18.583C14.2033 18.583 13.084 19.7023 13.084 21.083H14.084ZM14.084 26.2497V21.083H13.084V26.2497H14.084ZM15.584 27.7497C14.7556 27.7497 14.084 27.0781 14.084 26.2497H13.084C13.084 27.6304 14.2033 28.7497 15.584 28.7497V27.7497ZM21.834 27.7497H15.584V28.7497H21.834V27.7497ZM24.8613 29.667L22.1113 27.8337L21.5566 28.6657L24.3066 30.499L24.8613 29.667ZM24.084 28.2497V30.083H25.084V28.2497H24.084ZM24.4173 28.7497H24.584V27.7497H24.4173V28.7497ZM25.9173 26.2497C25.9173 27.0781 25.2457 27.7497 24.4173 27.7497V28.7497C25.798 28.7497 26.9173 27.6304 26.9173 26.2497H25.9173ZM25.9173 21.083V26.2497H26.9173V21.083H25.9173ZM24.4173 19.583C25.2457 19.583 25.9173 20.2546 25.9173 21.083H26.9173C26.9173 19.7023 25.798 18.583 24.4173 18.583V19.583ZM15.584 19.583H24.4173V18.583H15.584V19.583Z" fill="black"/>
<path d="M18.1673 23.6662C18.1673 24.1724 17.7569 24.5828 17.2507 24.5828C16.7444 24.5828 16.334 24.1724 16.334 23.6662C16.334 23.1599 16.7444 22.7495 17.2507 22.7495C17.7569 22.7495 18.1673 23.1599 18.1673 23.6662Z" fill="black"/>
<path d="M20.9173 23.6662C20.9173 24.1724 20.5069 24.5828 20.0007 24.5828C19.4944 24.5828 19.084 24.1724 19.084 23.6662C19.084 23.1599 19.4944 22.7495 20.0007 22.7495C20.5069 22.7495 20.9173 23.1599 20.9173 23.6662Z" fill="black"/>
<path d="M23.6673 23.6662C23.6673 24.1724 23.2569 24.5828 22.7507 24.5828C22.2444 24.5828 21.834 24.1724 21.834 23.6662C21.834 23.1599 22.2444 22.7495 22.7507 22.7495C23.2569 22.7495 23.6673 23.1599 23.6673 23.6662Z" fill="black"/>
<path d="M24.5833 11.7498V5.6665C24.5833 3.45736 22.7925 1.6665 20.5833 1.6665H18.5C16.2909 1.6665 14.5 3.45736 14.5 5.6665V11.7498" stroke="black" stroke-width="2" stroke-linecap="round"/>
</g>
<defs>
<clipPath id="clip0">
<path d="M0 8C0 3.58172 3.58172 0 8 0H32C36.4183 0 40 3.58172 40 8V32C40 36.4183 36.4183 40 32 40H8C3.58172 40 0 36.4183 0 32V8Z" fill="white"/>
</clipPath>
</defs>
</svg>
