<svg width="40" height="40" viewBox="0 0 40 40" fill="none" xmlns="http://www.w3.org/2000/svg">
<path d="M11 8.33334H29.3333" stroke="black" stroke-linecap="round"/>
<path d="M11 31.6667H29.3333" stroke="black" stroke-linecap="round"/>
<path d="M18.5 34.1667H21.8333" stroke="black" stroke-linecap="round"/>
<rect x="11" y="3.33334" width="18.3333" height="33.3333" rx="4" stroke="black" stroke-width="2" stroke-linecap="round"/>
<path d="M17.1429 24.1429C15.8095 24.1429 14.8572 23.9524 14 23.0952L15.3333 21.7619C15.8095 22.2381 16.4762 22.3333 17.2381 22.3333C18 22.3333 18.381 22.0476 18.381 21.5714C18.381 21.381 18.2857 21.1905 18.1905 21.0952C18.0952 21 17.9048 20.9048 17.6191 20.9048L16.5714 20.7143C15.8095 20.7143 15.2381 20.4286 14.8572 20.0476C14.4762 19.5714 14.2857 19.0952 14.2857 18.4286C14.2857 16.9048 15.4286 15.8571 17.3333 15.8571C18.4762 15.8571 19.4286 16.1429 20.1905 16.9048L18.8572 18.1429C18.381 17.6667 17.6191 17.6667 17.2381 17.6667C16.4762 17.6667 16.1905 18.1429 16.1905 18.4286C16.1905 18.5238 16.1905 18.7143 16.381 18.8095C16.4762 18.9048 16.6667 19 16.9524 19L18 19.1905C18.7619 19.2857 19.3333 19.5714 19.6191 19.9524C20.0952 20.4286 20.2857 21 20.2857 21.7619C20.381 23.2857 18.8572 24.1429 17.1429 24.1429Z" fill="#FC4646"/>
<path d="M22.5714 25H20.7619L24.0952 15H25.9048L22.5714 25Z" fill="#FC4646"/>
</svg>
